<svg width="126" height="26" viewBox="0 0 126 26" fill="none" xmlns="http://www.w3.org/2000/svg">
<style>
@media (prefers-color-scheme: dark) {
  path[stroke="#171C1C"] { stroke: #F3F3F3; }
  path[fill="#171C1C"] { fill: #F3F3F3; }
  path[fill="#FFFE4E"] { fill: #F0822B; }
}
</style>
<path d="M6.75 12.25L2.25 16.75V19H9L11.25 16.75" fill="#FFFE4E"/>
<path d="M6.75 12.25L2.25 16.75V19H9L11.25 16.75" stroke="#171C1C" stroke-width="2" stroke-linecap="round" stroke-linejoin="round"/>
<path d="M16.5 13L13.05 16.45C12.7696 16.7248 12.3926 16.8788 12 16.8788C11.6074 16.8788 11.2304 16.7248 10.95 16.45L7.05 12.55C6.77516 12.2696 6.62122 11.8926 6.62122 11.5C6.62122 11.1074 6.77516 10.7304 7.05 10.45L10.5 7" stroke="#171C1C" stroke-width="2" stroke-linecap="round" stroke-linejoin="round"/>
<path d="M34.1105 9.954C34.1105 10.719 33.9125 11.421 33.5165 12.06C33.1205 12.699 32.5445 13.221 31.7885 13.626C31.0325 14.031 30.1325 14.2695 29.0885 14.3415L28.508 17.595C28.283 18.846 27.671 19.4715 26.672 19.4715C26.123 19.4715 25.6145 19.3095 25.1465 18.9855C24.6875 18.6615 24.3185 18.1665 24.0395 17.5005C23.7605 16.8345 23.621 16.0155 23.621 15.0435C23.621 13.2165 23.9135 11.6685 24.4985 10.3995C25.0925 9.1215 25.8845 8.1675 26.8745 7.5375C27.8735 6.8985 28.9715 6.579 30.1685 6.579C31.0145 6.579 31.73 6.7275 32.315 7.0245C32.909 7.3215 33.3545 7.7265 33.6515 8.2395C33.9575 8.7435 34.1105 9.315 34.1105 9.954ZM29.3315 12.951C31.1765 12.717 32.099 11.7585 32.099 10.0755C32.099 9.4815 31.901 9 31.505 8.631C31.118 8.253 30.515 8.064 29.696 8.064C28.769 8.064 27.959 8.3565 27.266 8.9415C26.582 9.5265 26.051 10.341 25.673 11.385C25.304 12.42 25.1195 13.6035 25.1195 14.9355C25.1195 15.4935 25.1735 15.9885 25.2815 16.4205C25.3985 16.8525 25.5425 17.19 25.7135 17.433C25.8935 17.667 26.0645 17.784 26.2265 17.784C26.4515 17.784 26.6225 17.4735 26.7395 16.8525L27.185 14.301C26.834 14.247 26.681 14.2245 26.726 14.2335C26.456 14.1885 26.2805 14.1075 26.1995 13.9905C26.1185 13.8645 26.078 13.707 26.078 13.518C26.078 13.32 26.132 13.1625 26.24 13.0455C26.357 12.9285 26.5145 12.87 26.7125 12.87C26.8025 12.87 26.87 12.8745 26.915 12.8835C27.131 12.9195 27.2975 12.942 27.4145 12.951C27.5315 12.249 27.698 11.3085 27.914 10.1295C27.968 9.8235 28.0895 9.6075 28.2785 9.4815C28.4765 9.3465 28.706 9.279 28.967 9.279C29.264 9.279 29.4755 9.3375 29.6015 9.4545C29.7365 9.5625 29.804 9.738 29.804 9.981C29.804 10.125 29.795 10.242 29.777 10.332L29.3315 12.951Z" fill="#171C1C"/>
<path d="M38.312 19.07C37.7707 19.07 37.1593 19.0233 36.478 18.93C36.1047 18.8833 35.848 18.7853 35.708 18.636C35.568 18.4867 35.5073 18.244 35.526 17.908C35.5913 16.984 35.7453 15.8453 35.988 14.492C36.2307 13.1293 36.5247 11.818 36.87 10.558C36.9353 10.3247 37.066 10.1613 37.262 10.068C37.458 9.97467 37.7147 9.928 38.032 9.928C38.6013 9.928 38.886 10.0867 38.886 10.404C38.886 10.5347 38.858 10.684 38.802 10.852C38.5593 11.5987 38.3167 12.602 38.074 13.862C37.8313 15.1127 37.6587 16.3073 37.556 17.446C37.836 17.474 38.1533 17.488 38.508 17.488C40.1413 17.488 41.3593 16.9933 42.162 16.004C42.974 15.0147 43.38 13.694 43.38 12.042C43.38 10.9313 43.0627 10.0727 42.428 9.466C41.7933 8.85933 40.8973 8.556 39.74 8.556C38.9933 8.556 38.2513 8.67267 37.514 8.906C36.786 9.13933 36.128 9.44733 35.54 9.83C35.4187 9.914 35.288 9.956 35.148 9.956C34.9893 9.956 34.8633 9.89067 34.77 9.76C34.6767 9.62 34.63 9.452 34.63 9.256C34.63 9.032 34.6673 8.85 34.742 8.71C34.8167 8.56067 34.9427 8.42533 35.12 8.304C35.764 7.86533 36.52 7.534 37.388 7.31C38.256 7.07667 39.0913 6.96 39.894 6.96C41.0327 6.96 42.0173 7.16067 42.848 7.562C43.6787 7.954 44.318 8.53267 44.766 9.298C45.214 10.0633 45.438 10.9873 45.438 12.07C45.438 13.4793 45.158 14.7113 44.598 15.766C44.038 16.8113 43.2213 17.6233 42.148 18.202C41.0747 18.7807 39.796 19.07 38.312 19.07ZM58.1211 7.394C58.3825 7.43133 58.5598 7.51067 58.6531 7.632C58.7558 7.75333 58.8071 7.912 58.8071 8.108C58.8071 8.752 58.4618 9.05067 57.7711 9.004L57.2811 8.962C56.7305 8.91533 56.1798 8.878 55.6291 8.85C55.0878 8.822 54.5185 8.808 53.9211 8.808H53.2911C53.1791 10.1893 53.0625 11.4493 52.9411 12.588L55.3491 12.546C55.6945 12.546 55.9231 12.6067 56.0351 12.728C56.1565 12.8493 56.2171 13.0127 56.2171 13.218C56.2171 13.5353 56.1238 13.7873 55.9371 13.974C55.7505 14.1513 55.4845 14.24 55.1391 14.24H52.7451L52.6611 14.842C52.4651 16.382 52.0451 17.4787 51.4011 18.132C50.7665 18.7853 49.8891 19.112 48.7691 19.112C48.1345 19.112 47.5511 18.9767 47.0191 18.706C46.4871 18.426 46.0951 18.09 45.8431 17.698C45.7405 17.5393 45.6891 17.348 45.6891 17.124C45.6891 16.9 45.7405 16.704 45.8431 16.536C45.9551 16.368 46.0905 16.284 46.2491 16.284C46.3611 16.284 46.4685 16.3213 46.5711 16.396C46.6831 16.4707 46.8231 16.6153 46.9911 16.83C47.4391 17.418 47.9945 17.712 48.6571 17.712C49.1891 17.712 49.6325 17.4973 49.9871 17.068C50.3511 16.6293 50.5845 15.9433 50.6871 15.01L50.7711 14.24H50.0991C49.8845 14.24 49.6978 14.1793 49.5391 14.058C49.3898 13.9367 49.3151 13.764 49.3151 13.54C49.3151 13.2507 49.3898 13.0313 49.5391 12.882C49.6885 12.7233 49.9078 12.644 50.1971 12.644C50.4585 12.644 50.7151 12.6393 50.9671 12.63C51.0791 11.6033 51.2005 10.3573 51.3311 8.892C50.3231 8.98533 49.6138 9.14867 49.2031 9.382C48.7925 9.61533 48.5871 9.96067 48.5871 10.418C48.5871 10.7353 48.6805 11.0387 48.8671 11.328C48.9231 11.412 48.9511 11.496 48.9511 11.58C48.9511 11.748 48.8578 11.8973 48.6711 12.028C48.4845 12.1493 48.2745 12.21 48.0411 12.21C47.7891 12.21 47.5745 12.1353 47.3971 11.986C47.2851 11.8927 47.1778 11.7013 47.0751 11.412C46.9725 11.1227 46.9211 10.8007 46.9211 10.446C46.9211 9.28867 47.5138 8.44867 48.6991 7.926C49.8938 7.40333 51.6345 7.142 53.9211 7.142C55.5078 7.142 56.9078 7.226 58.1211 7.394ZM67.2801 19.07C66.6361 19.07 66.0527 18.9113 65.5301 18.594C65.0167 18.2767 64.6107 17.8193 64.3121 17.222C64.0134 16.6153 63.8641 15.9013 63.8641 15.08C63.8641 13.6613 64.1674 12.35 64.7741 11.146C65.3807 9.93267 66.2767 8.962 67.4621 8.234C68.6474 7.49667 70.0707 7.128 71.7321 7.128C72.1614 7.128 72.6187 7.16067 73.1041 7.226C73.5987 7.29133 74.0467 7.38933 74.4481 7.52C74.7094 7.59467 74.8401 7.78133 74.8401 8.08C74.8401 8.32267 74.7467 8.55133 74.5601 8.766C74.3827 8.98067 74.1727 9.088 73.9301 9.088C73.8554 9.088 73.7994 9.08333 73.7621 9.074C73.2767 8.962 72.8614 8.88267 72.5161 8.836C72.1707 8.78 71.8067 8.752 71.4241 8.752C70.2387 8.752 69.2307 9.04133 68.4001 9.62C67.5694 10.1893 66.9487 10.9453 66.5381 11.888C66.1274 12.8307 65.9221 13.848 65.9221 14.94C65.9221 15.7333 66.0761 16.3493 66.3841 16.788C66.7014 17.2173 67.1121 17.432 67.6161 17.432C68.1854 17.432 68.6847 17.1987 69.1141 16.732C69.5434 16.2653 69.9354 15.5093 70.2901 14.464C70.6447 13.4187 70.9947 12 71.3401 10.208C71.3961 9.94667 71.5081 9.76933 71.6761 9.676C71.8441 9.58267 72.0681 9.536 72.3481 9.536C73.0107 9.536 73.3421 9.75067 73.3421 10.18C73.3421 10.2547 73.3281 10.348 73.3001 10.46C73.0574 11.3653 72.8334 12.3687 72.6281 13.47C72.4321 14.562 72.3341 15.3927 72.3341 15.962C72.3341 16.466 72.4087 16.8347 72.5581 17.068C72.7074 17.292 72.9361 17.404 73.2441 17.404C73.5427 17.404 73.8274 17.306 74.0981 17.11C74.3687 16.9047 74.7094 16.5593 75.1201 16.074C75.2321 15.9433 75.3581 15.878 75.4981 15.878C75.6194 15.878 75.7127 15.934 75.7781 16.046C75.8527 16.158 75.8901 16.312 75.8901 16.508C75.8901 16.872 75.8014 17.1613 75.6241 17.376C75.1667 17.9267 74.7187 18.3467 74.2801 18.636C73.8414 18.9253 73.3047 19.07 72.6701 19.07C72.0167 19.07 71.4894 18.8833 71.0881 18.51C70.6867 18.1273 70.4347 17.5907 70.3321 16.9C69.6414 18.3467 68.6241 19.07 67.2801 19.07ZM75.7519 19.07C75.3973 19.07 75.1453 18.8833 74.9959 18.51C74.8559 18.1367 74.7859 17.5393 74.7859 16.718C74.7859 15.5047 74.9586 14.352 75.3039 13.26C75.3879 12.9893 75.5233 12.7933 75.7099 12.672C75.9059 12.5413 76.1766 12.476 76.5219 12.476C76.7086 12.476 76.8393 12.4993 76.9139 12.546C76.9886 12.5927 77.0259 12.6813 77.0259 12.812C77.0259 12.9613 76.9559 13.2973 76.8159 13.82C76.7226 14.1933 76.6479 14.52 76.5919 14.8C76.5359 15.08 76.4893 15.4253 76.4519 15.836C76.7599 15.0333 77.1053 14.38 77.4879 13.876C77.8706 13.372 78.2439 13.0127 78.6079 12.798C78.9813 12.5833 79.3219 12.476 79.6299 12.476C80.2366 12.476 80.5399 12.7793 80.5399 13.386C80.5399 13.75 80.4373 14.408 80.2319 15.36C80.0546 16.172 79.9659 16.7087 79.9659 16.97C79.9659 17.3433 80.1013 17.53 80.3719 17.53C80.5586 17.53 80.7779 17.418 81.0299 17.194C81.2913 16.9607 81.6366 16.5873 82.0659 16.074C82.1779 15.9433 82.3039 15.878 82.4439 15.878C82.5653 15.878 82.6586 15.934 82.7239 16.046C82.7986 16.158 82.8359 16.312 82.8359 16.508C82.8359 16.8813 82.7473 17.1707 82.5699 17.376C82.1686 17.8707 81.7346 18.2767 81.2679 18.594C80.8106 18.9113 80.2879 19.07 79.6999 19.07C79.2239 19.07 78.8646 18.9347 78.6219 18.664C78.3793 18.384 78.2579 17.9827 78.2579 17.46C78.2579 17.1987 78.3233 16.732 78.4539 16.06C78.5753 15.472 78.6359 15.066 78.6359 14.842C78.6359 14.6927 78.5846 14.618 78.4819 14.618C78.3606 14.618 78.1879 14.7767 77.9639 15.094C77.7493 15.402 77.5253 15.8127 77.2919 16.326C77.0679 16.8393 76.8859 17.3807 76.7459 17.95C76.6433 18.3887 76.5219 18.6873 76.3819 18.846C76.2513 18.9953 76.0413 19.07 75.7519 19.07ZM82.6973 19.07C82.3426 19.07 82.0906 18.8833 81.9413 18.51C81.8013 18.1367 81.7313 17.5393 81.7313 16.718C81.7313 15.5047 81.9039 14.352 82.2493 13.26C82.3333 12.9893 82.4686 12.7933 82.6553 12.672C82.8513 12.5413 83.1219 12.476 83.4673 12.476C83.6539 12.476 83.7846 12.4993 83.8593 12.546C83.9339 12.5927 83.9713 12.6813 83.9713 12.812C83.9713 12.9613 83.9013 13.2973 83.7613 13.82C83.6679 14.1933 83.5933 14.52 83.5373 14.8C83.4813 15.08 83.4346 15.4253 83.3973 15.836C83.7053 15.0333 84.0506 14.38 84.4333 13.876C84.8159 13.372 85.1893 13.0127 85.5533 12.798C85.9266 12.5833 86.2673 12.476 86.5753 12.476C87.1819 12.476 87.4853 12.7793 87.4853 13.386C87.4853 13.75 87.3826 14.408 87.1773 15.36C86.9999 16.172 86.9113 16.7087 86.9113 16.97C86.9113 17.3433 87.0466 17.53 87.3173 17.53C87.5039 17.53 87.7233 17.418 87.9753 17.194C88.2366 16.9607 88.5819 16.5873 89.0113 16.074C89.1233 15.9433 89.2493 15.878 89.3893 15.878C89.5106 15.878 89.6039 15.934 89.6693 16.046C89.7439 16.158 89.7812 16.312 89.7812 16.508C89.7812 16.8813 89.6926 17.1707 89.5153 17.376C89.1139 17.8707 88.6799 18.2767 88.2133 18.594C87.7559 18.9113 87.2333 19.07 86.6453 19.07C86.1693 19.07 85.8099 18.9347 85.5673 18.664C85.3246 18.384 85.2033 17.9827 85.2033 17.46C85.2033 17.1987 85.2686 16.732 85.3993 16.06C85.5206 15.472 85.5813 15.066 85.5813 14.842C85.5813 14.6927 85.5299 14.618 85.4273 14.618C85.3059 14.618 85.1333 14.7767 84.9093 15.094C84.6946 15.402 84.4706 15.8127 84.2373 16.326C84.0133 16.8393 83.8313 17.3807 83.6913 17.95C83.5886 18.3887 83.4673 18.6873 83.3273 18.846C83.1966 18.9953 82.9866 19.07 82.6973 19.07ZM95.7886 14.702C95.9099 14.702 96.0032 14.7627 96.0686 14.884C96.1339 15.0053 96.1666 15.1593 96.1666 15.346C96.1666 15.794 96.0312 16.06 95.7606 16.144C95.2006 16.34 94.5846 16.452 93.9126 16.48C93.7352 17.264 93.3852 17.894 92.8626 18.37C92.3399 18.8367 91.7472 19.07 91.0846 19.07C90.5246 19.07 90.0439 18.9347 89.6426 18.664C89.2506 18.3933 88.9519 18.034 88.7466 17.586C88.5412 17.138 88.4386 16.6527 88.4386 16.13C88.4386 15.4207 88.5739 14.7907 88.8446 14.24C89.1152 13.68 89.4886 13.246 89.9646 12.938C90.4406 12.6207 90.9679 12.462 91.5466 12.462C92.2559 12.462 92.8252 12.7093 93.2546 13.204C93.6932 13.6893 93.9499 14.2913 94.0246 15.01C94.4632 14.982 94.9859 14.8887 95.5926 14.73C95.6672 14.7113 95.7326 14.702 95.7886 14.702ZM91.1966 17.586C91.4952 17.586 91.7519 17.4647 91.9666 17.222C92.1906 16.9793 92.3399 16.6293 92.4146 16.172C92.1252 15.976 91.9012 15.7193 91.7426 15.402C91.5932 15.0847 91.5186 14.7487 91.5186 14.394C91.5186 14.2447 91.5326 14.0953 91.5606 13.946H91.4906C91.1172 13.946 90.8046 14.128 90.5526 14.492C90.3099 14.8467 90.1886 15.3507 90.1886 16.004C90.1886 16.5173 90.2866 16.9093 90.4826 17.18C90.6879 17.4507 90.9259 17.586 91.1966 17.586ZM101.564 15.878C101.686 15.878 101.779 15.934 101.844 16.046C101.919 16.158 101.956 16.312 101.956 16.508C101.956 16.8813 101.868 17.1707 101.69 17.376C101.289 17.8707 100.85 18.2767 100.374 18.594C99.8984 18.9113 99.3524 19.07 98.7364 19.07C96.8324 19.07 95.8804 17.7307 95.8804 15.052C95.8804 14.6413 95.8944 14.226 95.9224 13.806H95.3764C95.0964 13.806 94.9051 13.7547 94.8024 13.652C94.7091 13.5493 94.6624 13.386 94.6624 13.162C94.6624 12.6393 94.8724 12.378 95.2924 12.378H96.0904C96.2491 11.3513 96.4918 10.4133 96.8184 9.564C97.1451 8.71467 97.5371 8.038 97.9944 7.534C98.4611 7.03 98.9604 6.778 99.4924 6.778C99.8844 6.778 100.192 6.95067 100.416 7.296C100.64 7.64133 100.752 8.07533 100.752 8.598C100.752 10.0447 100.146 11.3047 98.9324 12.378H100.5C100.65 12.378 100.757 12.4107 100.822 12.476C100.888 12.5413 100.92 12.6627 100.92 12.84C100.92 13.484 100.393 13.806 99.3384 13.806H97.6304C97.6118 14.2727 97.6024 14.6367 97.6024 14.898C97.6024 15.8687 97.7144 16.55 97.9384 16.942C98.1718 17.334 98.5358 17.53 99.0304 17.53C99.4318 17.53 99.7864 17.4087 100.094 17.166C100.402 16.9233 100.766 16.5593 101.186 16.074C101.298 15.9433 101.424 15.878 101.564 15.878ZM99.1144 8.122C98.9744 8.122 98.8158 8.29933 98.6384 8.654C98.4704 8.99933 98.3071 9.48467 98.1484 10.11C97.9991 10.726 97.8731 11.412 97.7704 12.168C98.3211 11.692 98.7318 11.16 99.0024 10.572C99.2824 9.97467 99.4224 9.43333 99.4224 8.948C99.4224 8.39733 99.3198 8.122 99.1144 8.122ZM102.539 19.07C101.96 19.07 101.498 18.86 101.153 18.44C100.807 18.02 100.635 17.4693 100.635 16.788C100.635 16.0413 100.807 15.3367 101.153 14.674C101.498 14.002 101.955 13.4653 102.525 13.064C103.103 12.6533 103.715 12.448 104.359 12.448C104.564 12.448 104.699 12.49 104.765 12.574C104.839 12.6487 104.9 12.7887 104.947 12.994C105.143 12.9567 105.348 12.938 105.563 12.938C106.02 12.938 106.249 13.1013 106.249 13.428C106.249 13.624 106.179 14.0907 106.039 14.828C105.824 15.9013 105.717 16.648 105.717 17.068C105.717 17.208 105.749 17.32 105.815 17.404C105.889 17.488 105.983 17.53 106.095 17.53C106.272 17.53 106.487 17.418 106.739 17.194C106.991 16.9607 107.331 16.5873 107.761 16.074C107.873 15.9433 107.999 15.878 108.139 15.878C108.26 15.878 108.353 15.934 108.419 16.046C108.493 16.158 108.531 16.312 108.531 16.508C108.531 16.8813 108.442 17.1707 108.265 17.376C107.882 17.852 107.476 18.2533 107.047 18.58C106.617 18.9067 106.202 19.07 105.801 19.07C105.493 19.07 105.208 18.9673 104.947 18.762C104.695 18.5473 104.503 18.258 104.373 17.894C103.887 18.678 103.276 19.07 102.539 19.07ZM103.043 17.656C103.248 17.656 103.444 17.5347 103.631 17.292C103.817 17.0493 103.953 16.7273 104.037 16.326L104.555 13.75C104.163 13.7593 103.799 13.9087 103.463 14.198C103.136 14.478 102.875 14.8513 102.679 15.318C102.483 15.7847 102.385 16.2793 102.385 16.802C102.385 17.0913 102.441 17.306 102.553 17.446C102.674 17.586 102.837 17.656 103.043 17.656ZM113.637 15.878C113.758 15.878 113.851 15.934 113.917 16.046C113.991 16.158 114.029 16.312 114.029 16.508C114.029 16.8813 113.94 17.1707 113.763 17.376C113.361 17.8707 112.923 18.2767 112.447 18.594C111.971 18.9113 111.425 19.07 110.809 19.07C108.905 19.07 107.953 17.7307 107.953 15.052C107.953 14.6413 107.967 14.226 107.995 13.806H107.449C107.169 13.806 106.977 13.7547 106.875 13.652C106.781 13.5493 106.735 13.386 106.735 13.162C106.735 12.6393 106.945 12.378 107.365 12.378H108.163C108.321 11.3513 108.564 10.4133 108.891 9.564C109.217 8.71467 109.609 8.038 110.067 7.534C110.533 7.03 111.033 6.778 111.565 6.778C111.957 6.778 112.265 6.95067 112.489 7.296C112.713 7.64133 112.825 8.07533 112.825 8.598C112.825 10.0447 112.218 11.3047 111.005 12.378H112.573C112.722 12.378 112.829 12.4107 112.895 12.476C112.96 12.5413 112.993 12.6627 112.993 12.84C112.993 13.484 112.465 13.806 111.411 13.806H109.703C109.684 14.2727 109.675 14.6367 109.675 14.898C109.675 15.8687 109.787 16.55 110.011 16.942C110.244 17.334 110.608 17.53 111.103 17.53C111.504 17.53 111.859 17.4087 112.167 17.166C112.475 16.9233 112.839 16.5593 113.259 16.074C113.371 15.9433 113.497 15.878 113.637 15.878ZM111.187 8.122C111.047 8.122 110.888 8.29933 110.711 8.654C110.543 8.99933 110.379 9.48467 110.221 10.11C110.071 10.726 109.945 11.412 109.843 12.168C110.393 11.692 110.804 11.16 111.075 10.572C111.355 9.97467 111.495 9.43333 111.495 8.948C111.495 8.39733 111.392 8.122 111.187 8.122ZM120.029 14.702C120.15 14.702 120.243 14.7627 120.309 14.884C120.374 15.0053 120.407 15.1593 120.407 15.346C120.407 15.794 120.271 16.06 120.001 16.144C119.441 16.34 118.825 16.452 118.153 16.48C117.975 17.264 117.625 17.894 117.103 18.37C116.58 18.8367 115.987 19.07 115.325 19.07C114.765 19.07 114.284 18.9347 113.883 18.664C113.491 18.3933 113.192 18.034 112.987 17.586C112.781 17.138 112.679 16.6527 112.679 16.13C112.679 15.4207 112.814 14.7907 113.085 14.24C113.355 13.68 113.729 13.246 114.205 12.938C114.681 12.6207 115.208 12.462 115.787 12.462C116.496 12.462 117.065 12.7093 117.495 13.204C117.933 13.6893 118.19 14.2913 118.265 15.01C118.703 14.982 119.226 14.8887 119.833 14.73C119.907 14.7113 119.973 14.702 120.029 14.702ZM115.437 17.586C115.735 17.586 115.992 17.4647 116.207 17.222C116.431 16.9793 116.58 16.6293 116.655 16.172C116.365 15.976 116.141 15.7193 115.983 15.402C115.833 15.0847 115.759 14.7487 115.759 14.394C115.759 14.2447 115.773 14.0953 115.801 13.946H115.731C115.357 13.946 115.045 14.128 114.793 14.492C114.55 14.8467 114.429 15.3507 114.429 16.004C114.429 16.5173 114.527 16.9093 114.723 17.18C114.928 17.4507 115.166 17.586 115.437 17.586ZM124.861 14.394C125.067 14.394 125.239 14.4687 125.379 14.618C125.529 14.758 125.603 14.9353 125.603 15.15C125.603 15.2713 125.575 15.402 125.519 15.542C125.37 15.8873 125.16 16.1767 124.889 16.41C124.619 16.6433 124.32 16.76 123.993 16.76C123.732 16.76 123.508 16.6667 123.321 16.48C123.144 16.2933 123.055 16.0413 123.055 15.724C123.055 15.5467 123.065 15.3553 123.083 15.15C123.102 15.0007 123.111 14.898 123.111 14.842C123.111 14.7673 123.093 14.7113 123.055 14.674C123.027 14.6367 122.99 14.618 122.943 14.618C122.813 14.618 122.635 14.7767 122.411 15.094C122.187 15.402 121.963 15.8127 121.739 16.326C121.515 16.8393 121.333 17.3807 121.193 17.95C121.091 18.398 120.974 18.6967 120.843 18.846C120.713 18.9953 120.498 19.07 120.199 19.07C119.845 19.07 119.593 18.8833 119.443 18.51C119.303 18.1367 119.233 17.5393 119.233 16.718C119.233 15.5047 119.406 14.352 119.751 13.26C119.835 12.9893 119.971 12.7933 120.157 12.672C120.353 12.5413 120.624 12.476 120.969 12.476C121.156 12.476 121.287 12.4993 121.361 12.546C121.436 12.5927 121.473 12.6813 121.473 12.812C121.473 12.9613 121.403 13.2973 121.263 13.82C121.17 14.1933 121.095 14.52 121.039 14.8C120.983 15.08 120.937 15.4253 120.899 15.836C121.207 15.0333 121.553 14.38 121.935 13.876C122.318 13.372 122.691 13.0127 123.055 12.798C123.419 12.5833 123.751 12.476 124.049 12.476C124.32 12.476 124.525 12.5553 124.665 12.714C124.815 12.8633 124.889 13.0873 124.889 13.386C124.889 13.5633 124.838 13.8993 124.735 14.394H124.861Z" fill="#171C1C"/>
</svg>
